<svg id="Capa_1" data-name="Capa 1" xmlns="http://www.w3.org/2000/svg" viewBox="0 0 1080 1080"><defs><style>.cls-1{fill:#fefefe;}.cls-2{fill:#e39f10;}.cls-3{fill:#aa4375;}.cls-4{fill:#55acb6;}.cls-5{fill:#478b94;}.cls-6{fill:#b48027;}.cls-7{fill:#d65a81;}.cls-8{fill:#8bb438;}.cls-9{fill:#81973f;}.cls-10{fill:#829840;}</style></defs><path class="cls-1" d="M1494,1116H414V36H1494Z" transform="translate(-414 -36)"/><path class="cls-2" d="M612.68,432.29c-3.95.06-7.89.15-11.83.16-1.47,0-1.91-.47-1.9-2.08,0-5.36.08-10.73.14-16.09,3.73-6.62,10.08-10.64,15.65-15.33,13.1-11,27.54-20.29,41.72-29.85,15.53-10.46,31-21,44.48-34.11,18.76-18.31,31.45-40,35.93-66.3,6.48-38.2-4.07-70.95-29.54-99.62-10.29-11.59-22.42-20.84-31.06-27.26,8.7,7.1,17.44,19.88,25.05,33.42,7.08,12.61,12.48,25.94,14.51,40.41,3.57,25.35-2.68,39.78-26.14,54-12.92,7.82-27.2,12.69-41.48,17.45-14.57,4.84-29.23,9.38-43.7,14.51-1.76.62-3.53,1.81-5.4.25-.07-1.59-.21-3.18-.21-4.78q0-84,0-168c0-6.32-.47-5.7,5.63-5.7q107.28,0,214.56,0c1.59,0,3.19.13,4.78.2,2,1.31,3,3.34,4,5.3,12.31,23.45,28.1,44.55,44.29,65.37,11.38,14.63,22.49,29.44,33.59,44.28A14.11,14.11,0,0,1,908,243.2c.06,1.59.18,3.19.18,4.78V425.87c0,.48,0,1,0,1.44,0,5.54.48,5.18-5.16,5.18-7.35,0-14.7,0-22,0-1.44,0-2.87-.12-4.3-.19-1.69-2.45-.54-5,0-7.42,2.75-13.34,3.87-26.82,4.64-40.4,1.06-18.49-.75-36.62-4.42-54.7-4.28-21.13-14.82-47.12-31.76-66.62a378.61,378.61,0,0,1,11.25,50.23c6.1,40.67-.58,78.88-21.54,114.42-1.06,1.81-2.15,3.58-4.16,4.49-1.58.07-3.16.19-4.74.19q-15.9,0-31.8,0c-1.57,0-3.15-.12-4.73-.19-.53-2,.87-3.31,1.79-4.75,9.45-14.85,18.84-29.74,25.64-46.06,7.43-17.83,12.33-36.19,13.69-55.61,1.8-25.8-2.17-50.66-10.63-74.9a152.59,152.59,0,0,0-33.73-54.75C757.59,166,722,147.91,682.57,136.72c-3.84-1.09-7.67-2.21-9.56-2.93,6.44,1.81,14.16,5.57,21.62,9.88a229.35,229.35,0,0,1,22,14.5,241.93,241.93,0,0,1,20.5,17.33,186.35,186.35,0,0,1,17.88,19.38c5.54,6.84,10.92,13.81,15.23,21.52a129.47,129.47,0,0,1,12.29,29.09c4.28,15.6,1.57,30.11-5.77,44.05-7.63,14.5-18.65,26.26-30.73,37.12C721.26,349,693.55,367.47,667,387.45c-17.4,13.07-34.3,26.73-50,41.87A17.14,17.14,0,0,1,612.68,432.29Z" transform="translate(-414 -36)"/><path class="cls-3" d="M1261.54,536.15c.06,1.6.18,3.19.18,4.79q0,41.76,0,83.52c0,1.59-.14,3.19-.21,4.78-2.87,10.62-8.9,19.77-13.77,29.43q-20,39.6-40.23,79a19.58,19.58,0,0,0-2.08,9.24c0,9.91.1,19.82,0,29.72-.07,5.38-.47,5.68-5.75,5.68-44.43,0-88.85-.05-133.28.11-4.13,0-6.07-1.43-7.29-5.15-1.69-5.17-2.91-10.47-4.53-15.65q-16.89-56.45-33.81-112.89c-2.42-8-8.37-13.1-13.38-18.95-13-15.15-26.35-30-39.36-45.08-2.4-2.78-5.29-5.12-7.31-8.23-2.59-3.63-6.77-6.06-8.12-10.64-.35-16.33-.31-32.65,0-49,2.33-.48,3.51,1.3,4.77,2.62,12,12.45,23.6,25.19,35.34,37.84,9.79,10.54,19.63,21,29.4,31.59,12.58,13.61,25.47,26.95,37.8,40.79a24.91,24.91,0,0,1,4.45,7.88c12.21,31.63,24,63.39,36.33,95a67.61,67.61,0,0,1,3,9.21c-1.75-12.21-3-25.24-4.5-38.23-3.2-27-6.13-54-9.22-81-1.42-12.38-3.12-24.73-4.11-37.16a18.89,18.89,0,0,0-3-8.94q-20.07-31.59-40.07-63.22-10.86-17.25-21.89-34.41c-1-1.54-2.44-3.14-1.09-5.23,1.11-.07,2.22-.19,3.32-.19q24.56,0,49.09,0c1.11,0,2.21.13,3.32.2,4.5,2.38,6.55,6.93,9.2,10.82,21.38,31.47,43.21,62.63,64.57,94.11a20.78,20.78,0,0,1,3.13,9.43c4,31.37,8.49,62.67,12.71,94a1.25,1.25,0,0,0,.86,1.28c5.86-8.6,11.32-17.58,17-26.43q32.58-51.17,65-102.41c3.17-5,6.47-9.9,9.5-15C1258.31,538,1259,535.87,1261.54,536.15Z" transform="translate(-414 -36)"/><path class="cls-4" d="M646.25,473.7c2.21-.05,4.43-.16,6.64-.16q19.25,0,38.49.12a2.13,2.13,0,0,1,.13,3c-3.48,3.37-2.94,7.65-2.61,11.73a229.15,229.15,0,0,0,8.05,46.2,217,217,0,0,0,39.68,76.58C761.18,641.53,791.48,664,828,678.17a216.47,216.47,0,0,0,63.36,14.26c3.65.26,7.27,1,11,.84,2.56-.08,3.94-1,3.8-3.73,0-10.55-.12-21.1.06-31.65.07-3.93-1.35-5.19-5.27-5.36-42.08-1.78-79-16.59-110.88-44.15a176.48,176.48,0,0,1-45.38-61.08c-9.11-19.92-14.76-40.84-15.12-62.92-.06-3.55-2.32-7.21.27-10.69,1.59-.05,3.17-.15,4.75-.15q20.69,0,41.38,0c1.59,0,3.17.09,4.75.14,1.47,1.57,1.24,3.55,1.28,5.45.62,27.4,10.06,51.7,26.93,72.93C832,581.14,862.64,596.63,899.53,600c5.93.53,6.58-.05,6.57-6.17,0-5.59.14-11.19-.15-16.8-.19-29.71,0-59.41-.1-89.11,0-7.85,0-7.87-8.06-7.87H815.88c-2.23,0-4.53.25-6.67-.43-2.77-.88-5.63-1.92-4.54-5.88,1.59-.06,3.19-.17,4.79-.17h92.61c1,0,1.92,0,2.88,0,3,.09,3.16.21,3.24,3.34,0,1.28,0,2.56,0,3.84v85.42q0,39.84,0,79.67c0,13.91.11,27.83.11,41.75,0,15.19-.1,30.39-.1,45.59s.09,30.39.08,45.59c0,1.31.67,2.91-.89,3.91a4.18,4.18,0,0,1-1-1.51c-1.06-9.39-.29-18.81-.47-28.21-.1-5.26-.1-10.54,0-15.79.6-3.51-.85-4.77-4.43-4.93-39-1.7-76.21-10.53-111-28.53A259.88,259.88,0,0,1,709,638c-26.16-31.63-43.66-67.48-53.11-107.32a216.22,216.22,0,0,1-6-46,11.87,11.87,0,0,0-4-8.77A2.05,2.05,0,0,1,646.25,473.7Z" transform="translate(-414 -36)"/><path class="cls-5" d="M907.36,735.86v46c-1.47,1-3.11.45-4.66.45-20.79,0-41.58-.35-62.35.17-11.62.3-22.47-2.11-33.28-5.79a320.48,320.48,0,0,1-89.35-46.6,324.17,324.17,0,0,1-62.4-61.32,319.81,319.81,0,0,1-48.69-89.27c-3.15-8.85-6-17.8-7.46-27.12-.1-2.39-.28-4.78-.28-7.17q0-33.3,0-66.6c0-.8,0-1.6,0-2.4.1-2.46.3-2.74,2.82-2.74q21.79,0,43.6,0a5.16,5.16,0,0,1,.94.17l0,1.91c2.5,5.6,1.56,11.68,2,17.47a255.75,255.75,0,0,0,14.89,69.67,250.49,250.49,0,0,0,42.69,75.15c26.57,32.22,58.7,57.28,97.08,74.18a263.92,263.92,0,0,0,84.24,21.31c5.24.45,10.51.67,15.76,1.15C904.48,734.68,906.12,734.55,907.36,735.86Z" transform="translate(-414 -36)"/><path class="cls-6" d="M612.68,432.29a67.82,67.82,0,0,1,11.31-11,19.61,19.61,0,0,0,2.46-2.28c4-4.11,8.68-7.5,12.94-11.31s8.63-7.06,13-10.59c5.79-4.73,11.83-9.15,17.82-13.63,5.35-4,10.78-7.91,16.17-11.86,6.17-4.52,12.31-9.07,18.49-13.57,5.28-3.83,10.56-7.67,15.61-11.81,3.94-3.23,8.08-6.2,12-9.42,3.21-2.62,6.16-5.56,9.39-8.15a159.78,159.78,0,0,0,15.3-14.47c7.5-7.87,14.26-16.38,19.15-26.12,3.2-6.39,5.74-13.09,6.5-20.38.27-2.52.62-5,.78-7.58.21-3.56-.62-7-1.3-10.4-2.42-12-7.38-23-13.51-33.55-4.59-7.9-10.19-15-15.83-22.13a172,172,0,0,0-19.47-20.46,217.66,217.66,0,0,0-31.86-24.33q-6.5-4-13.23-7.59a204.84,204.84,0,0,0-19.19-8.52,1.21,1.21,0,0,1-.91-1.18,7.38,7.38,0,0,1,1.82,0c11.51,3.18,23,6.37,34.27,10.42a236.75,236.75,0,0,1,31.84,14.31,196.15,196.15,0,0,1,21.18,13c4.29,3,8.42,6.29,12.57,9.5,7.1,5.5,13.31,12,19.36,18.54a148,148,0,0,1,14.37,18.46,174.77,174.77,0,0,1,12.2,21.67,159.68,159.68,0,0,1,9,24.68c1.66,5.81,3,11.7,4.1,17.64.73,3.9,1.76,7.76,1.62,11.78,1.78,5.55.61,11.39,1.63,17.08a31.61,31.61,0,0,1-.33,13.33,6.8,6.8,0,0,0-.29,2.36c.51,4.83-.72,9.52-1.16,14.26-.43,4.56-1.73,9-2.74,13.54a158.77,158.77,0,0,1-8.29,25.9A193.18,193.18,0,0,1,807.48,403c-5.5,9.35-11,18.7-17,27.7-.35.53-.73,1-1.09,1.57-1.59.07-3.18.19-4.77.19H617.93C616.18,432.48,614.43,432.36,612.68,432.29Z" transform="translate(-414 -36)"/><path class="cls-7" d="M1261.54,536.15c-1.86,1.15-2.61,3.17-3.73,4.87-4.37,6.65-8.23,13.63-12.86,20.12-.83,1.16-1.35,2.54-2.12,3.74-5.94,9.24-12,18.43-17.86,27.69-3.85,6-7.39,12.3-11.34,18.27-2.54,3.86-4.91,7.81-7.37,11.71-5.87,9.3-11.93,18.47-17.87,27.72q-10.19,15.88-20.28,31.84c-.51.81-.93,1.67-1.38,2.52s-.77,1.71-1.62,1.38a2.6,2.6,0,0,1-1.14-2c-.22-2.7-.9-5.36-1-8-.19-3.2-.81-6.34-1.29-9.44-.9-5.8-.79-11.75-2.55-17.41.17-3.84-1.26-7.5-1.21-11.38a51.6,51.6,0,0,0-1.15-8.95c-.8-5-2.07-10-2.45-15-.53-7-1.77-13.85-2.85-20.74-.49-3.12-.3-6.34-1.07-9.46a8.15,8.15,0,0,0-1.16-3.06c-2.24-3.09-4.38-6.26-6.54-9.41q-7.7-11.25-15.36-22.5c-7.1-10.38-14.18-20.77-21.34-31.12-3.53-5.1-7.26-10.07-10.79-15.17-3.26-4.71-6.34-9.55-9.58-14.27s-6.76-9.64-10.15-14.45c1.43-.05,2.87-.14,4.31-.14q87.83,0,175.65,0c7.16,0,6.29-.79,6.3,6.47q.06,26.16,0,52.31C1261.7,533.6,1261.6,534.88,1261.54,536.15Z" transform="translate(-414 -36)"/><path class="cls-4" d="M599.17,552.4c1,.58.82,1.62,1.09,2.52,1.4,4.57,2.46,9.27,4,13.73,2.8,8,5,16.12,8.62,23.8,2.83,6,5.06,12.39,8,18.4a67.33,67.33,0,0,0,4.6,8.88,76,76,0,0,1,3.75,7.17c3.13,5.92,6.81,11.52,10.25,17.26,3.12,5.21,6.74,10.06,10.2,15,2.73,3.91,5.73,7.63,8.64,11.41,2.14,2.77,4.28,5.54,6.53,8.21,2.77,3.29,5.54,6.6,8.53,9.68,6.36,6.53,12.77,13,19.35,19.33,3.44,3.3,7.28,6.17,10.91,9.26,2.18,1.86,4.35,3.73,6.57,5.55a291.43,291.43,0,0,0,28.44,20.14,280.69,280.69,0,0,0,32.65,18.06c7.36,3.42,14.69,6.95,22.4,9.6,4.52,1.56,8.9,3.53,13.45,5,7.14,2.23,14.2,4.72,21.52,6.32a18.06,18.06,0,0,0,3.83.2l74.84,0c0,.26,0,.52,0,.78-1.76.08-3.51.25-5.26.25l-297.57-.11c-1.12,0-2.25,0-3.36,0-1.74-.1-2.14-.51-2.22-2.39-.06-1.6,0-3.2,0-4.8q0-109.2,0-218.4C599,555.59,599.1,554,599.17,552.4Z" transform="translate(-414 -36)"/><path class="cls-8" d="M952.58,327.74c-.06-.94-.18-1.89-.18-2.84q0-25.48,0-51c0-.95.12-1.89.18-2.84,2.38-1.93,5.2-1.38,7.85-1.19,18.54,1.31,35.49,7.74,51.75,16.33,23,12.16,45.16,26.08,69.58,35.53a231.36,231.36,0,0,0,66.08,15.38c27.79,2.15,55.25.77,82.27-6.48a235.48,235.48,0,0,0,25.45-8.56c1.89-.75,3.76-1.92,6-1.06.06,1.11.17,2.22.17,3.32q0,26,0,51.92c0,1.11-.12,2.22-.18,3.32-3.1,4.39-8.29,5.26-12.7,7.3-16.31,7.55-33.14,13.26-51.16,15.38-14.92,1.76-29.36-.11-43.62-4-21-5.69-40-16.05-58.9-26.4-27.53-15-55.47-29.07-86-37.23a203.17,203.17,0,0,0-45.87-6.62C959.71,327.92,956.06,330.34,952.58,327.74Z" transform="translate(-414 -36)"/><path class="cls-8" d="M1261.52,245.17c.06,1.1.17,2.21.17,3.32q0,26.19,0,52.4c0,.95-.11,1.9-.16,2.84-8.33,5-17.65,7.4-26.93,9.69-27.68,6.82-54.23,2.69-80.07-8.51-20.29-8.79-39.36-20-59-30.06-26.13-13.46-53-24.86-82.15-30a150.81,150.81,0,0,0-55.31.33c-1.82.36-3.68,1.36-5.53,0-.06-.95-.18-1.89-.18-2.84q0-25,0-50c0-1,.12-1.9.18-2.84,1.64-1.51,3.76-1.75,5.8-2a105.4,105.4,0,0,1,50.43,5.55c18,6.62,34.26,16.46,50.87,25.71,30.85,17.19,63,30.7,98.53,34.29,33,3.33,65.78,2.35,97.82-7.53C1257.8,245,1259.61,243.86,1261.52,245.17Z" transform="translate(-414 -36)"/><path class="cls-8" d="M1261.53,162.63c.06,1,.17,1.9.17,2.85q0,29.29,0,58.61c0,.95-.12,1.9-.18,2.85a5.77,5.77,0,0,1-3.57,2.24c-7.83,1.53-15.55,3.4-23.59,4-32.62,2.29-61-10.07-88.68-25-25-13.5-49.88-27.45-76.91-36.75-22.48-7.74-45.39-13.44-69.44-12.23a149.06,149.06,0,0,0-42.17,8.39c-1.48.52-2.89,1.49-4.58.79-.06-1.27-.17-2.54-.18-3.82q0-18,0-35.93c0-1.12,0-2.24,0-3.35s.48-1.82,1.68-1.86c.79,0,1.59,0,2.39,0q52.93,0,105.87,0c.79,0,1.59.13,2.38.19a6.1,6.1,0,0,0,3.51,5.26c26.56,15.16,53.68,29,83.82,35.75a255.45,255.45,0,0,0,86.55,4.76c5.24-.62,10.45-1.28,15.65-2.18,2.26-.39,4.42-.87,5.41-3.31C1260.12,163.12,1260.61,162.53,1261.53,162.63Z" transform="translate(-414 -36)"/><path class="cls-6" d="M599.11,301.82a14.38,14.38,0,0,0,2.8-.48c12.26-4.54,24.7-8.51,37.18-12.39,8-2.51,15.93-5.58,23.87-8.42a164.91,164.91,0,0,0,18.49-7.82c6.14-3.06,12.16-6.36,17.4-10.79a50.92,50.92,0,0,0,11.58-13.28,36.63,36.63,0,0,0,5-19.13c0-2.08,0-4.15,0-6.23a68.48,68.48,0,0,0-2.77-17.37A126.54,126.54,0,0,0,701,177.15a174.72,174.72,0,0,0-14.09-21.6c-2.51-3.32-5.69-6-8-9.52a15.65,15.65,0,0,0-4.85-4.58,29.1,29.1,0,0,1-5.19-4.84c.65-.94,1.15-.42,1.63-.1,7.29,4.85,14.32,10.08,21.21,15.48.88.69,1.61,1.56,2.43,2.32,1.86,1.74,3.5,3.72,5.76,5a10.18,10.18,0,0,1,2.44,2.29c5.56,6.55,11.69,12.59,16.43,19.87,3.56,5.48,7.23,10.88,10.07,16.78a105.76,105.76,0,0,1,8.74,26.19,115.83,115.83,0,0,1,2,13.66c.22,3.15.82,6.3.76,9.5-.05,2.39.19,4.79-.72,7.11a6.22,6.22,0,0,0-.21,2.37c.14,4.34-1.16,8.5-1.6,12.74-.66,6.44-2.94,12.39-4.74,18.47a75.45,75.45,0,0,1-8.34,18.23c-2.43,3.92-4.56,8-7.46,11.65-2.4,3-4.87,5.89-7.35,8.79a80.14,80.14,0,0,1-6.33,7.16,254.24,254.24,0,0,1-21.8,18.59c-9.49,7-19.18,13.72-29,20.26-6,4-11.85,8.06-17.7,12.2-6.1,4.32-12.24,8.59-18,13.39-5.51,4.59-11,9.2-16.09,14.27a15,15,0,0,1-1.91,1.42c-.08-1.43-.24-2.86-.24-4.29q0-51.94,0-103.88C598.85,304.68,599,303.25,599.11,301.82Z" transform="translate(-414 -36)"/><path class="cls-7" d="M1019.7,473.66a9.29,9.29,0,0,0,1.92,4.32c5.88,9.1,11.79,18.19,17.61,27.33,7.79,12.24,15.5,24.52,23.26,36.77q9.84,15.55,19.71,31.09c1.2,1.89,2.34,3.8,3.52,5.7a11.66,11.66,0,0,1,1.26,5c.61,5.2.71,10.45,1.65,15.62.64,3.59.55,7.31,1.24,10.88.91,4.7.39,9.55,1.7,14.18a5.23,5.23,0,0,1,.14,1.43c0,5.11,1.36,10.09,1.69,15.13.29,4.45,1.29,8.8,1.29,13.29a72.09,72.09,0,0,0,1.1,10.43c.71,4.86,1.5,9.7,1.77,14.64.23,4.26,1,8.5,1.59,12.74.39,3,.46,6,1.07,9a50.55,50.55,0,0,1,.91,7.54c.22,4.3.66,8.56,1.18,12.82.47,3.94,1.06,7.86,1.57,11.79a26.61,26.61,0,0,1,.31,3.32c0,2.4-.07,4.79.85,7.09a1.28,1.28,0,0,1-.34,1.63c-.23-.2-.57-.35-.67-.6-1-2.35-1.88-4.73-2.81-7.1-1.92-4.9-3.87-9.78-5.75-14.69-2.27-5.94-4.46-11.91-6.72-17.86-3.28-8.64-6.77-17.21-9.82-25.93-1.53-4.35-3.4-8.56-4.88-12.94-2.69-8-6.08-15.75-9.18-23.6-.35-.89-.76-1.77-1-2.68a30,30,0,0,0-6.94-11.81c-3.81-4.31-8.09-8.18-11.76-12.58-4.51-5.41-9.84-10-14.36-15.4-3.51-4.17-7.6-7.76-11.06-11.93-4.4-5.29-9.63-9.81-14-15.06-3.59-4.32-7.77-8-11.42-12.25-4.6-5.32-9.76-10.12-14.33-15.43-4-4.62-8.51-8.65-12.41-13.28-3.71-4.42-7.7-8.53-11.76-12.59a11.64,11.64,0,0,0-3.24-2.81c0-6.23-.12-12.47-.14-18.7,0-6.88,0-13.76,0-20.64,0-.79,0-1.59.08-2.39a1.5,1.5,0,0,1,1.49-1.53c1-.07,1.92-.1,2.87-.1h61.42A13.56,13.56,0,0,1,1019.7,473.66Z" transform="translate(-414 -36)"/><path class="cls-9" d="M952.58,168.34c4.86-2.91,10.39-4.06,15.72-5.57A104.12,104.12,0,0,1,986.47,159c4.73-.47,9.43-1.55,14.26-1.28,4,.22,8,0,12,.05,1.92,0,3.84-.13,5.67.66a5.38,5.38,0,0,0,1.89.27c10.74.41,21,3.21,31.3,6,4.62,1.24,9.21,2.53,13.76,4,3.79,1.22,7.48,2.74,11.23,4.09a245.87,245.87,0,0,1,23.7,10.21c5.41,2.61,10.89,5.14,16.16,8.11,5.1,2.87,10.52,5.27,15.6,8.2s10.13,5.41,15.17,8.15a276.1,276.1,0,0,0,28,13.6c6.35,2.58,12.86,4.71,19.41,6.68,4.4,1.32,9,1.9,13.47,3,3.93,1,7.89.93,11.88.94,3.51,0,7-.19,10.55,0,6.94.46,13.63-.94,20.33-2.36,3.57-.75,7.12-1.64,10.67-2.47a156.16,156.16,0,0,1,0,18.23,229.33,229.33,0,0,1-22.58,6.09c-2.78.63-5.61,1.08-8.42,1.57-3.28.58-6.56,1.16-9.85,1.68a30.89,30.89,0,0,1-3.33.25,11.86,11.86,0,0,0-2.87.1c-4.22,1.37-8.56.82-12.85.85-9.91.07-19.83,0-29.75,0-2.38,0-4.8.26-7.1-.74a5.17,5.17,0,0,0-1.9-.19c-6.37-.19-12.56-1.78-18.85-2.52-5.57-.66-10.84-2.5-16.33-3.44-3.89-.67-7.64-2.21-11.45-3.37a239.1,239.1,0,0,1-23.7-9c-10.16-4.32-19.89-9.52-29.72-14.51-6.53-3.31-12.75-7.23-19.14-10.83q-4.79-2.7-9.67-5.26c-3.79-2-7.59-4-11.43-5.84-2.44-1.18-4.94-2.26-7.46-3.25a155.65,155.65,0,0,0-27.41-8.17,13.53,13.53,0,0,0-2.39-.12,38.05,38.05,0,0,1-8.07-.73,15.9,15.9,0,0,0-8.07.17,16.59,16.59,0,0,1-4.73.55c-2.87,0-5.73-.16-8.53.83a10.88,10.88,0,0,1-3.34.13Q952.07,178.92,952.58,168.34Z" transform="translate(-414 -36)"/><path class="cls-5" d="M729.78,473.69a34.57,34.57,0,0,0,.65,6.63,29.53,29.53,0,0,1,.28,7.64c-.22,4.2.81,8.22,1.38,12.31.38,2.67,1.21,5.28,1.42,8a29.27,29.27,0,0,0,1.07,5.61c1.89,6.57,3.28,13.3,5.74,19.7A185.11,185.11,0,0,0,755.39,565a164.67,164.67,0,0,0,10.92,16.25c2.49,3.1,5,6.2,7.61,9.19a138.09,138.09,0,0,0,10.42,11.2,189.79,189.79,0,0,0,42.2,30.23,133,133,0,0,0,16.93,7.66A179,179,0,0,0,868.14,647c4.63,1,9.33,1.85,14,2.64,4.08.68,8.24.37,12.29,1.5,2.23.63,4.77.18,7.16.21,1.28,0,2.56,0,3.84.08a1.79,1.79,0,0,1,1.86,1.79c.06.79.07,1.59.07,2.39q0,17,0,34.06c-4.32,2.59-9.07,1.47-13.54,1.1a233.63,233.63,0,0,1-51.68-9.93,214.74,214.74,0,0,1-61.38-31c-38.64-28.08-65.23-65-80-110.31-5.95-18.28-9.7-37.1-9.73-56.49a31,31,0,0,1,1.27-9.39c7.12-.06,14.24-.17,21.35-.17C719,473.48,724.41,473.61,729.78,473.69Z" transform="translate(-414 -36)"/><path class="cls-9" d="M952.58,245.17c3.86-.91,7.72-1.85,11.59-2.72a11.86,11.86,0,0,1,2.39-.15,15.21,15.21,0,0,0,2.87-.06c7.9-1.78,15.91-.61,23.86-.88,3.17-.1,6.4-.43,9.48.8a2.51,2.51,0,0,0,1,.1c7.72,0,15.09,2.14,22.48,3.92a212.94,212.94,0,0,1,26.46,8.1c7.13,2.75,14.17,5.73,21.31,8.47,1.18.46,2.3,1.11,3.45,1.66,5.46,2.61,11.11,4.87,16.31,7.9,5.39,3.14,11.29,5.27,16.41,8.87a10.27,10.27,0,0,0,1.26.69c12.07,6.2,24.07,12.56,36.24,18.55a176.33,176.33,0,0,0,18.51,7.74,135,135,0,0,0,22.6,5.85c4.17.72,8.43,1.66,12.79,1.3a71,71,0,0,1,8.63,0c7.06.26,13.91-1.12,20.79-2.41a140.2,140.2,0,0,0,25.51-7.87c1.6-.63,3.23-1.45,5.07-1.27a151.46,151.46,0,0,1,0,17.31c-6.22,2.46-12.34,5.26-18.69,7.3-7.41,2.39-15,4.22-22.57,6.1-3.53.87-7.17,1.33-10.77,1.93-5.48.91-10.92,2.14-16.53,2-6.61,1.71-13.35.76-20,.9s-13.12,0-19.67,0c-4.76-1.6-9.78-.8-14.67-1.61s-10-1.5-15-2.35A181.62,181.62,0,0,1,1105,331a244,244,0,0,1-27.08-9.25c-3.69-1.53-7.29-3.25-10.92-4.9s-7.35-3.07-10.78-5c-4.45-2.54-9-4.76-13.53-7.19-3.93-2.12-7.69-4.52-11.6-6.67-5.32-2.92-10.77-5.6-16-8.6-4.85-2.75-9.84-5.14-14.9-7.48A137.31,137.31,0,0,0,973.92,273c-2.48-.58-4.95-1.28-7.55-1a3.43,3.43,0,0,1-1.43-.05c-4-1.36-8.22-.78-12.36-.9Q952.06,258.13,952.58,245.17Z" transform="translate(-414 -36)"/><path class="cls-9" d="M952.58,327.74a58.86,58.86,0,0,0,6.62-.65,43.57,43.57,0,0,1,13.34.12,12.11,12.11,0,0,0,3.28.48c4.51-.43,8.83,1.16,13.31,1.12a22.49,22.49,0,0,1,5.61,1c7.69,2,15.43,3.73,23.06,6,6.72,2,13.36,4.21,19.83,6.81,6.77,2.72,13.54,5.49,20.14,8.7s13.23,6.37,19.76,9.71,13.12,7.22,19.73,10.73c4.78,2.54,9.68,4.85,14.49,7.32,1.84.95,3.51,2.24,5.38,3.1,5.34,2.47,10.83,4.65,16.11,7.25a106.81,106.81,0,0,0,12,4.79,134.18,134.18,0,0,0,15.57,4.47c5.56,1.24,11.22,2.12,16.88,2.82,3.14.4,6.38.1,9.57.17,6.88.13,13.59-1.15,20.32-2.27,3.76-.63,7.43-1.61,11.13-2.53,6.52-1.61,12.64-4.28,18.9-6.59,5.7-2.1,11.05-5,16.7-7.12a33.09,33.09,0,0,0,5-2.71,4.94,4.94,0,0,1,2.19-.86,127.27,127.27,0,0,1,0,16.34c-1,2.39-3.23,3.46-5.33,4.61A205.93,205.93,0,0,1,1180.4,425c-46.13,5.47-90.49-.44-133-19.88-16.77-7.68-32.64-16.95-48.82-25.69-13.26-7.16-26.59-14-41.29-17.84a9.62,9.62,0,0,1-4.75-2.17c-.07-3.46-.21-6.93-.2-10.39C952.41,341.93,952.51,334.84,952.58,327.74Z" transform="translate(-414 -36)"/><path class="cls-4" d="M804.67,473.71c.78,3.23,2.78,4.85,6.15,4.78,2.08,0,4.15,0,6.23,0h84.38c6.34,0,6-.35,6,6q0,44.6,0,89.18c0,1.6,0,3.2-.07,4.8-3.27,2-6.89,1.33-10.29,1a105.61,105.61,0,0,1-59.88-26.66C818.7,536.39,808,515.89,803.09,492c-.92-4.55-.75-9.23-1.51-13.81a5.07,5.07,0,0,1,1.17-4.5Z" transform="translate(-414 -36)"/><path class="cls-8" d="M952.58,359.42a13.44,13.44,0,0,1,2.86.2c9.18,2.69,18.33,5.46,26.88,9.9,3.83,2,7.77,3.75,11.56,5.82,7.41,4.06,14.74,8.25,22.11,12.39l1.26.68c8.22,4.28,16.3,8.84,24.68,12.76,11.69,5.48,23.54,10.63,36,14.28,8.71,2.56,17.53,4.58,26.42,6.33,5.29,1,10.7,1.42,16,2.15,3.66.5,7.35.29,10.92.88,9.55,1.59,19.13.51,28.68.85a12.3,12.3,0,0,0,5.2-.59,6.2,6.2,0,0,1,2.35-.33c5.77.2,11.37-1.18,17-1.78,10.35-1.08,20.32-3.62,30.25-6.49a163.38,163.38,0,0,0,30.69-12c5.37-2.81,10.92-5.28,16-8.57.06,2.87.17,5.75.17,8.62q0,12.48,0,25c0,2.78-.17,2.88-3,3-1.11,0-2.24,0-3.35,0H1024.49c-1.6,0-3.19-.12-4.79-.19-15.76-4.86-31.23-10.74-47.59-13.61-5-.88-10.1-1.14-15.09-2.09-1.56-.3-3.19-.27-4.44-1.47-.06-.95-.18-1.9-.18-2.85q0-25,0-50C952.4,361.32,952.52,360.37,952.58,359.42Z" transform="translate(-414 -36)"/><path class="cls-7" d="M1055.24,760.77c1.25,1.35,1.55,3.1,1.91,4.79a125.66,125.66,0,0,0,3.95,13.28c.94,2.81,1.27,3,4.09,3.07,1,0,1.92,0,2.88,0h129.61c7,0,6.37.54,6.38-6.54,0-10.08.06-20.16,0-30.24a14,14,0,0,1,1.68-6.87c3.9-7.33,7.5-14.82,11.37-22.18,8-15.25,15.55-30.76,23.32-46.14,2.23-4.4,4.68-8.68,6.92-13.07,3.9-7.68,7.7-15.42,11.6-23.1.79-1.55,1.29-3.29,2.6-4.54.06,1.76.18,3.51.18,5.27q0,71,0,142.09c0,7,.69,6.19-6.08,6.2q-91.68.08-183.36.11-57.12,0-114.23-.1c-1,0-1.92,0-2.88,0-2.45-.09-2.63-.27-2.72-2.84,0-1.12,0-2.24,0-3.36q0-103,0-205.94c0-1.59.1-3.19.16-4.78l8.55,9.59c-1.83,2.21-2.3,4.79-2.3,7.6q0,94,0,188c0,6,.5,6.43,6.69,6.44q41,0,82,0c7.15,0,7.67-.77,5.47-7.41-.6-1.82-1.55-3.58-1.54-5.52C1051.49,762.17,1051.92,760,1055.24,760.77Z" transform="translate(-414 -36)"/><path class="cls-6" d="M908,243.2c-4.24-5.56-8.51-11.09-12.72-16.67-4.4-5.84-8.7-11.77-13.12-17.6-6.15-8.11-12.25-16.26-18.6-24.21-8.64-10.85-16.53-22.22-24-33.86-4.33-6.68-8.77-13.32-12.11-20.59-1.06-2.31-3.11-4.1-3.52-6.74,1.44-.07,2.87-.2,4.31-.2q37.44,0,74.87,0c5.68,0,5.18-.38,5.18,5.17q0,55,0,109.92C908.22,240,908.07,241.61,908,243.2Z" transform="translate(-414 -36)"/><path class="cls-9" d="M1261.53,162.63l-.83.93c-2.88,2.43-6.54,2.42-10,3.06-18.49,3.48-37.23,4-55.9,3a236.6,236.6,0,0,1-88.76-22.31c-12.16-5.72-23.94-12.16-35.64-18.77a15.86,15.86,0,0,1-1.64-1c-1-.76-2.36-1.61-1.94-3s1.92-.8,3-.81q52.76,0,105.53,0c2.67,0,4.95,1,7.28,2.11,11.2,5.11,22.41,10.16,34.41,13.28a119.85,119.85,0,0,0,39,3.62c1.88-.14,3.81-.82,5.49.69A183.91,183.91,0,0,1,1261.53,162.63Z" transform="translate(-414 -36)"/><path class="cls-6" d="M830.62,432.29c3-5.28,6-10.53,8.87-15.85,3.36-6.18,5.65-12.82,8.23-19.34,3-7.73,4.78-15.81,6.56-23.87.65-2.93.73-6,1.32-8.94.89-4.41.66-8.88,1.07-13.31.27-3,.88-6,.78-9-.08-2.54.23-5.11-.74-7.58a4.47,4.47,0,0,1-.16-1.9c.41-5.29-.71-10.47-1-15.71-.12-2.08-.76-4.06-1.08-6.1-.82-5.16-1.62-10.33-2.64-15.47-1.63-8.12-3.89-16-5.89-24.06-.81-3.24-1.83-6.42-2.73-9.64a.88.88,0,0,1,.44-1.15,1,1,0,0,1,.84.29c1.88,2.15,3.84,4.26,5.58,6.52a135.84,135.84,0,0,1,16,26,167.19,167.19,0,0,1,11.18,31.92c1.11,4.8,2.48,9.58,3,14.45.4,3.62.92,7.26,1.39,10.86.72,5.58.46,11.14,1,16.68.23,2.68.86,5.33.77,8.06a28.54,28.54,0,0,1-.61,6.16,28.53,28.53,0,0,0-.31,5.72c-.15,3.81.43,7.68-.88,11.4.42,4.34-1.09,8.5-1.16,12.82,0,3-.9,5.95-1.44,8.91-.75,4.06-1.54,8.1-2.31,12.15-.8.07-1.59.19-2.39.19H833C832.21,432.48,831.41,432.36,830.62,432.29Z" transform="translate(-414 -36)"/><path class="cls-5" d="M802.75,473.69c.06,3-.27,6.06.81,9a5.87,5.87,0,0,1,.13,2.37c-.3,3.56.56,7,1.39,10.35a127.81,127.81,0,0,0,8.08,23.38c3.37,7.29,7.87,13.78,12.42,20.27,1.26,1.81,3.17,3.15,4.6,4.85,6.94,8.24,15.32,14.64,24.51,20.15a104.29,104.29,0,0,0,28.55,11.78c2.76.68,5.65.87,8.4,1.57,5.18,1.33,10.45.69,15.68,1.05,0,6.55.08,13.1,0,19.65,0,3-.29,3.24-3.37,3.25a30.2,30.2,0,0,1-8.07-.66c-2.72-.74-5.65-.66-8.48-1.07a114.92,114.92,0,0,1-30.09-8.83c-1.61-.71-3.27-1.27-4.87-2-8.77-4-16.55-9.55-24.2-15.28a99.13,99.13,0,0,1-14.67-13.7A126.71,126.71,0,0,1,799,540.38a130.77,130.77,0,0,1-10.86-22.33c-2-5.48-4.23-11-4.8-16.94-.31-3.28-1.39-6.5-2-9.78a51.84,51.84,0,0,1-.72-9c0-2.88,0-5.75,0-8.63C788,473.34,795.38,473.31,802.75,473.69Z" transform="translate(-414 -36)"/><path class="cls-8" d="M1261.52,143.41a6.91,6.91,0,0,0-1.44,0c-7.58,1.76-15.27.63-22.91.88-2.07.07-4-.81-6.11-1-7.46-.73-14.66-2.76-21.8-5a154.87,154.87,0,0,1-20.4-8.2c-3.59-1.73-7.42-2.92-10.75-5.22a5,5,0,0,0-2.25-.63c-1.11-.11-2.24,0-3.36,0H1071.73c-1.12,0-2.24,0-3.36,0a.93.93,0,0,0-.69.46,1,1,0,0,0,.21.82,2.15,2.15,0,0,0,.76.56c13.18,7.15,26.26,14.51,39.85,20.87a254.72,254.72,0,0,0,28.61,10.82,220.66,220.66,0,0,0,27.77,6.84c4.53.85,9.2.89,13.65,2s9.25.22,13.71,1.7a9.37,9.37,0,0,0,2.86.1h30.24a13.49,13.49,0,0,0,5.19-.64,6.42,6.42,0,0,1,2.36-.3c4.48,0,8.81-1.24,13.22-1.62,4.94-.41,9.64-2.05,14.59-2.24,0,.63,0,1.27,0,1.91a1.81,1.81,0,0,1-1.25,1.83,16.24,16.24,0,0,1-3.19,1c-3.8.35-7.51,1.55-11.25,1.76-4.45.25-8.79,1.53-13.27,1.22a5,5,0,0,0-1.9.06c-4,1.39-8.22.82-12.34.87-6.23.07-12.46,0-18.68,0-2.38,0-4.79.27-7.09-.74a3.75,3.75,0,0,0-1.89-.18c-4.82.56-9.49-.8-14.24-1.1a91.19,91.19,0,0,1-12.67-2c-7-1.45-14-2.81-20.86-4.78-8.39-2.42-16.63-5.32-24.78-8.56-11.14-4.43-21.62-10.19-32.39-15.36a154.26,154.26,0,0,1-14.57-8.19c-1.08-.67-2.27-1.15-3.39-1.76a16.74,16.74,0,0,1-2.44-1.49c-1.88-1.5-1.79-2.53.31-4.52,1.59-.07,3.19-.2,4.78-.2h186.57c1.12,0,2.24,0,3.35,0,1.89.08,2.21.33,2.2,2.32C1261.66,131.59,1261.57,137.5,1261.52,143.41Z" transform="translate(-414 -36)"/><path class="cls-4" d="M692.31,473.65c0,4,0,8,0,12,0,3.18-.35,6.41.82,9.5a3.58,3.58,0,0,1,.12,1.43c-.27,5.63,1.16,11.07,2.17,16.52,1.33,7.19,3.17,14.27,5,21.34,1.11,4.17,2.6,8.2,4,12.24a191.19,191.19,0,0,0,13.33,29.68c3.68,6.7,7.69,13.24,11.94,19.6a209,209,0,0,0,14.67,18.83c4.26,5,9,9.55,13.5,14.25a174.78,174.78,0,0,0,21.46,18.27,190.82,190.82,0,0,0,19.92,13.2,188.9,188.9,0,0,0,24.87,12.28c4,1.54,8,3.3,12,4.73,5.85,2.06,11.86,3.69,17.83,5.38,3.06.87,6.2,1.47,9.3,2.19,5.42,1.25,11,1.7,16.4,2.82,4.56,1,9.17.77,13.74,1.54s9.25.18,13.88.19c.39,5.21-.6,4.94-4.59,4.86-3.34-.06-6.7.41-10-.76a10.81,10.81,0,0,0-3.33-.18c-1.92,0-3.83.11-5.68-.66a7,7,0,0,0-2.36-.29c-6.22-.21-12.26-1.52-18.34-2.71-7-1.38-13.92-3.34-20.82-5.21a77.39,77.39,0,0,1-12.55-4.51c-3.6-1.7-7.41-2.91-11.08-4.48a177,177,0,0,1-23-11.83c-3.53-2.17-7.28-4-10.62-6.46-5.34-4-11-7.61-16.16-11.85-3.92-3.23-8-6.33-11.41-10.19a20.33,20.33,0,0,0-5.39-4.71,6.38,6.38,0,0,1-2.38-2.32c-1.46-2.56-3.77-4.32-5.65-6.48-3-3.48-5.83-7.15-8.92-10.57-5-5.6-8.91-12-13.12-18.2A141.62,141.62,0,0,1,713.83,579c-1.94-3.67-3.67-7.46-5.6-11.14a160.68,160.68,0,0,1-9-21.62,216.69,216.69,0,0,1-6-21.11c-1.64-6.81-2.46-13.75-3.86-20.58-.75-3.66-.26-7.37-1-10.9s-.64-7.29-.82-10.94c-.12-2.56.26-4.79,2.73-6.14,1.21-.67,1.11-1.83,1.14-2.95Z" transform="translate(-414 -36)"/><path class="cls-10" d="M952.58,415.12c2.53.09,5.1-.34,7.53.76a3.18,3.18,0,0,0,1.42.16c5.62-.21,10.93,1.54,16.35,2.59a201.24,201.24,0,0,1,27.9,7.73c3.3,1.15,6.6,2.28,9.84,3.57a9.71,9.71,0,0,1,4.08,2.36c-1.42.07-2.85.19-4.28.19q-29.11,0-58.23,0c-5.2,0-4.83.36-4.81-5C952.39,423.38,952.51,419.25,952.58,415.12Z" transform="translate(-414 -36)"/><path class="cls-7" d="M1055.24,760.77c-2.88,1.14-3.39,2-2.49,4.51,1,2.7,2,5.38,3,8.06a7.67,7.67,0,0,1,.28,4.24,1.45,1.45,0,0,1-1.26,1.26,27.41,27.41,0,0,1-2.86.16H961.78a22.73,22.73,0,0,1-2.86-.14,1.64,1.64,0,0,1-1.5-1.6c-.09-1.11-.1-2.23-.1-3.35V580.2c0-.32,0-.63,0-1,.07-3.48.08-3.48,3.81-3.79,2,2.1,4,4.15,5.83,6.3,3.34,3.83,6.61,7.72,9.92,11.59.41.48.79,1,1.24,1.45A155.17,155.17,0,0,1,991,609.53a15.62,15.62,0,0,0,1.32,1.38c4.61,4.63,8.55,9.86,13,14.65,3.23,3.52,6.09,7.36,9.51,10.71a28.55,28.55,0,0,1,2.6,2.8,23.21,23.21,0,0,1,4.1,7.91c2.9,10.09,6.34,20,9.16,30.13,2.47,8.88,5.6,17.55,7.72,26.54,1,4.33,2.59,8.52,3.89,12.78q3.76,12.32,7.51,24.63,2.7,8.9,5.35,17.81A9.88,9.88,0,0,1,1055.24,760.77Z" transform="translate(-414 -36)"/><path class="cls-4" d="M907.36,735.86c-3.81-.25-7.66.28-11.42-.9-1.17-.37-2.54-.08-3.82-.12-3-.07-6.08.34-9-.81a5.12,5.12,0,0,0-1.42-.13c-8.27-.44-16.35-2.06-24.5-3.38-7.58-1.22-14.85-3.49-22.22-5.41-6.31-1.66-12.5-3.84-18.63-6.11a235.43,235.43,0,0,1-27.09-12A254.84,254.84,0,0,1,752,683.81c-5.7-4.34-11.11-9-16.85-13.3a23,23,0,0,1-2.41-2.33c-5.2-5.2-10.42-10.38-15.61-15.6a200,200,0,0,1-21-25.32c-3.77-5.34-7.47-10.72-11-16.23-2.14-3.36-4.14-6.81-6.05-10.3-2.68-4.88-5.25-9.82-7.82-14.76-.51-1-.72-2.11-1.19-3.12-2.73-5.76-5.16-11.65-7.36-17.64s-4.19-12-6-18.14c-1.49-5-2.95-10.07-4-15.22-.92-4.67-2.15-9.27-2.69-14-.31-2.83-1.41-5.6-1.53-8.42-.18-4.3-1.48-8.47-1.29-12.81a19,19,0,0,0-.72-7.58,10.2,10.2,0,0,1-.2-3.33c0-3.36,0-6.72,0-10.08.71.37,1.43.72,2.14,1.1a4.71,4.71,0,0,1,2.65,4.71c-.09,1.75,0,3.51,0,5.27,0,2.39-.23,4.79.74,7.11a5,5,0,0,1,.19,2.37c-.52,4.51,1,8.84,1.15,13.31.15,3.77,1.16,7.52,1.94,11.25,1.14,5.44,2.26,10.89,3.69,16.26,2.49,9.39,5.47,18.62,8.87,27.74a264.27,264.27,0,0,0,14,30.44c4.59,8.75,9.51,17.33,15.64,25.15,1.07,1.38,1.91,2.94,2.9,4.39a99.52,99.52,0,0,0,8.56,10.87,48,48,0,0,1,5.13,6.28,34.77,34.77,0,0,0,4.69,5.41c3,3.08,6.23,6,9.13,9.19,4.86,5.33,10.52,9.79,15.8,14.65a130.52,130.52,0,0,0,11.36,8.68c4.63,3.39,9.25,6.79,14,10,3.57,2.4,7.28,4.6,11,6.69,5.3,2.95,10.62,5.87,16.07,8.53q11.19,5.44,22.87,9.77a243.66,243.66,0,0,0,25.51,8c7.51,1.88,15,4.08,22.89,4.45,2.53,1.12,5.37.62,8,1.5a11.72,11.72,0,0,0,3.31.36,16.58,16.58,0,0,1,4.25.55,15.4,15.4,0,0,0,3.79.41c3.33.1,6.64,0,10,.79,2.42.59,5.09.13,7.65.2,2.92.07,3.05.23,3.22,3.4C907.41,734.9,907.37,735.38,907.36,735.86Z" transform="translate(-414 -36)"/></svg>