<?xml version="1.0" standalone="no"?>
<!DOCTYPE svg PUBLIC "-//W3C//DTD SVG 20010904//EN"
 "http://www.w3.org/TR/2001/REC-SVG-20010904/DTD/svg10.dtd">
<svg version="1.0" xmlns="http://www.w3.org/2000/svg"
 width="96.000000pt" height="96.000000pt" viewBox="0 0 96.000000 96.000000"
 preserveAspectRatio="xMidYMid meet">

<g transform="translate(0.000000,96.000000) scale(0.100000,-0.100000)"
fill="#000000" stroke="none">
<path d="M160 480 l0 -420 270 0 c149 0 270 2 270 4 0 3 -22 32 -50 65 -31 37
-50 70 -50 86 0 23 3 25 50 25 l50 0 0 70 0 70 50 0 50 0 0 158 0 157 -103
103 -102 102 -218 0 -217 0 0 -420z m520 295 l95 -95 -98 0 -97 0 0 95 c0 52
1 95 3 95 1 0 45 -43 97 -95z m-227 -211 c15 -30 31 -53 35 -50 4 3 19 27 32
55 22 48 25 51 62 51 44 0 45 1 -18 -98 -19 -29 -34 -57 -34 -62 0 -5 20 -41
45 -79 25 -38 45 -72 45 -75 0 -3 -17 -6 -37 -6 -36 0 -40 3 -67 55 -16 30
-31 55 -35 55 -3 0 -19 -25 -36 -55 -28 -52 -32 -55 -67 -55 -21 0 -38 2 -38
5 0 3 20 36 45 75 25 39 45 75 45 81 0 6 -18 41 -40 79 -22 38 -40 71 -40 74
0 3 17 6 38 6 36 0 39 -3 65 -56z"/>
<path d="M740 271 l0 -70 -50 -3 -50 -3 35 -44 c55 -69 119 -141 125 -141 7 0
150 176 150 185 0 3 -20 5 -45 5 l-45 0 0 70 0 70 -60 0 -60 0 0 -69z"/>
</g>
</svg>
